<svg width="36" height="36" viewBox="0 0 36 36" fill="none" xmlns="http://www.w3.org/2000/svg">
<path d="M18.0001 0C8.06024 0 0 8.26271 0 18.4557C0 26.6099 5.15759 33.5279 12.3096 35.9683C13.2092 36.1391 13.5395 35.5679 13.5395 35.0805C13.5395 34.6404 13.5228 33.1865 13.515 31.6444C8.50736 32.7608 7.45068 29.4669 7.45068 29.4669C6.63187 27.3336 5.45209 26.7664 5.45209 26.7664C3.81894 25.6209 5.57519 25.6445 5.57519 25.6445C7.38272 25.7747 8.33447 27.5463 8.33447 27.5463C9.93991 30.3678 12.5454 29.5521 13.5725 29.0805C13.7341 27.8877 14.2006 27.0736 14.7154 26.6127C10.7173 26.146 6.51443 24.5635 6.51443 17.4918C6.51443 15.4768 7.21759 13.8305 8.36905 12.538C8.18216 12.0732 7.56604 10.1961 8.54342 7.65392C8.54342 7.65392 10.055 7.1579 13.4947 9.5457C14.9306 9.13678 16.4704 8.93171 18.0001 8.92468C19.5299 8.93171 21.0709 9.13678 22.5094 9.5457C25.945 7.1579 27.4545 7.65392 27.4545 7.65392C28.4343 10.1961 27.8178 12.0732 27.631 12.538C28.7851 13.8305 29.4835 15.4768 29.4835 17.4918C29.4835 24.5803 25.2726 26.1411 21.2644 26.598C21.91 27.1707 22.4853 28.2939 22.4853 30.0157C22.4853 32.4851 22.4644 34.4726 22.4644 35.0805C22.4644 35.5716 22.7884 36.1471 23.7008 35.9658C30.849 33.5227 36 26.6072 36 18.4557C36 8.26271 27.9409 0 18.0001 0Z" fill="#161514"/>
<path d="M6.87064 26.3719C6.83107 26.4627 6.69064 26.4899 6.5627 26.4276C6.43239 26.3679 6.3592 26.2442 6.40145 26.1531C6.44012 26.0596 6.58085 26.0336 6.71087 26.0962C6.84148 26.1558 6.91586 26.2808 6.87064 26.3719Z" fill="#161514"/>
<path d="M7.59838 27.1976C7.51269 27.2784 7.34519 27.2409 7.23153 27.1132C7.11401 26.9858 7.092 26.8154 7.17887 26.7334C7.26724 26.6526 7.42968 26.6904 7.5475 26.8178C7.66502 26.9468 7.68793 27.1159 7.59838 27.1976Z" fill="#161514"/>
<path d="M8.3068 28.2496C8.19672 28.3274 8.01672 28.2544 7.90545 28.0919C7.79537 27.9294 7.79537 27.7345 7.90783 27.6565C8.0194 27.5784 8.19672 27.6486 8.30948 27.8099C8.41927 27.9751 8.41927 28.17 8.3068 28.2496Z" fill="#161514"/>
<path d="M9.27729 29.2662C9.17881 29.3767 8.96906 29.347 8.81554 29.1963C8.65845 29.0489 8.61471 28.8398 8.71349 28.7294C8.81316 28.6186 9.0241 28.6498 9.17881 28.7993C9.33471 28.9464 9.38231 29.157 9.27729 29.2662Z" fill="#161514"/>
<path d="M10.6162 29.8571C10.5727 30.0003 10.3707 30.0653 10.1672 30.0045C9.964 29.9419 9.83101 29.7742 9.87207 29.6296C9.91432 29.4855 10.1172 29.4177 10.3222 29.4828C10.5251 29.5451 10.6584 29.7116 10.6162 29.8571Z" fill="#161514"/>
<path d="M12.0865 29.9664C12.0915 30.1171 11.919 30.2421 11.7054 30.2448C11.4906 30.2496 11.3168 30.1277 11.3144 29.9794C11.3144 29.8272 11.4831 29.7034 11.6979 29.6998C11.9115 29.6956 12.0865 29.8166 12.0865 29.9664Z" fill="#161514"/>
<path d="M13.4548 29.7294C13.4804 29.8765 13.3319 30.0275 13.1198 30.0678C12.9112 30.1065 12.7181 30.0157 12.6916 29.8699C12.6658 29.7192 12.8169 29.5682 13.0252 29.5291C13.2376 29.4916 13.4277 29.58 13.4548 29.7294Z" fill="#161514"/>
</svg>
