<svg width="36" height="36" viewBox="0 0 36 36" fill="none" xmlns="http://www.w3.org/2000/svg">
<path d="M25.2754 0H10.7246C4.81103 0 0 4.81103 0 10.7246V25.2754C0 31.189 4.81103 36 10.7246 36H25.2754C31.189 36 36 31.189 36 25.2754V10.7246C35.9999 4.81103 31.1889 0 25.2754 0ZM32.3784 25.2754C32.3784 29.1982 29.1982 32.3784 25.2754 32.3784H10.7246C6.80175 32.3784 3.6216 29.1982 3.6216 25.2754V10.7246C3.6216 6.80169 6.80175 3.6216 10.7246 3.6216H25.2754C29.1982 3.6216 32.3784 6.80169 32.3784 10.7246V25.2754Z" fill="url(#paint0_linear)"/>
<path d="M18 8.68945C12.8659 8.68945 8.68909 12.8663 8.68909 18.0003C8.68909 23.1342 12.8659 27.3112 18 27.3112C23.134 27.3112 27.3109 23.1343 27.3109 18.0003C27.3109 12.8662 23.134 8.68945 18 8.68945ZM18 23.6896C14.8578 23.6896 12.3107 21.1425 12.3107 18.0003C12.3107 14.8582 14.8579 12.3111 18 12.3111C21.1421 12.3111 23.6893 14.8582 23.6893 18.0003C23.6893 21.1424 21.142 23.6896 18 23.6896Z" fill="url(#paint1_linear)"/>
<path d="M27.3289 10.99C28.5611 10.99 29.56 9.9911 29.56 8.75891C29.56 7.52672 28.5611 6.52783 27.3289 6.52783C26.0967 6.52783 25.0978 7.52672 25.0978 8.75891C25.0978 9.9911 26.0967 10.99 27.3289 10.99Z" fill="url(#paint2_linear)"/>
<defs>
<linearGradient id="paint0_linear" x1="18" y1="35.8952" x2="18" y2="0.279618" gradientUnits="userSpaceOnUse">
<stop stop-color="#E09B3D"/>
<stop offset="0.3" stop-color="#C74C4D"/>
<stop offset="0.6" stop-color="#C21975"/>
<stop offset="1" stop-color="#7024C4"/>
</linearGradient>
<linearGradient id="paint1_linear" x1="18" y1="35.8956" x2="18" y2="0.279951" gradientUnits="userSpaceOnUse">
<stop stop-color="#E09B3D"/>
<stop offset="0.3" stop-color="#C74C4D"/>
<stop offset="0.6" stop-color="#C21975"/>
<stop offset="1" stop-color="#7024C4"/>
</linearGradient>
<linearGradient id="paint2_linear" x1="27.3289" y1="35.8951" x2="27.3289" y2="0.279502" gradientUnits="userSpaceOnUse">
<stop stop-color="#E09B3D"/>
<stop offset="0.3" stop-color="#C74C4D"/>
<stop offset="0.6" stop-color="#C21975"/>
<stop offset="1" stop-color="#7024C4"/>
</linearGradient>
</defs>
</svg>
