<svg width="36" height="36" viewBox="0 0 36 36" fill="none" xmlns="http://www.w3.org/2000/svg">
<path d="M18 36C27.9411 36 36 27.9411 36 18C36 8.0589 27.9411 0 18 0C8.0589 0 0 8.0589 0 18C0 27.9411 8.0589 36 18 36Z" fill="url(#paint0_linear)"/>
<path d="M6.70369 18.8808C8.80787 17.7217 11.1567 16.7544 13.3514 15.7821C17.127 14.1895 20.9177 12.6246 24.7466 11.1676C25.4915 10.9194 26.8301 10.6766 26.9613 11.7806C26.8895 13.3433 26.5938 14.8968 26.391 16.4504C25.8763 19.8668 25.2814 23.2715 24.7013 26.6766C24.5014 27.8109 23.0805 28.398 22.1714 27.6722C19.9865 26.1963 17.7848 24.7349 15.6278 23.2248C14.9212 22.5069 15.5764 21.4758 16.2074 20.9631C18.007 19.1897 19.9154 17.6829 21.6209 15.8178C22.081 14.7069 20.7217 15.6432 20.2733 15.93C17.8097 17.6277 15.4064 19.4291 12.809 20.9211C11.4823 21.6515 9.93595 21.0273 8.6098 20.6198C7.42073 20.1275 5.67832 19.6315 6.70357 18.8808L6.70369 18.8808Z" fill="white"/>
<defs>
<linearGradient id="paint0_linear" x1="13.5021" y1="1.5012" x2="4.5021" y2="22.5" gradientUnits="userSpaceOnUse">
<stop stop-color="#37AEE2"/>
<stop offset="1" stop-color="#1E96C8"/>
</linearGradient>
</defs>
</svg>
