<svg width="36" height="36" viewBox="0 0 36 36" fill="none" xmlns="http://www.w3.org/2000/svg">
<circle cx="18" cy="18" r="18" fill="#4680C2"/>
<path fill-rule="evenodd" clip-rule="evenodd" d="M29.4241 11.4908C29.602 10.9319 29.4241 10.5254 28.6366 10.5254H26.0197C25.3592 10.5254 25.0543 10.8811 24.8765 11.2622C24.8765 11.2622 23.53 14.5142 21.6499 16.6228C21.0402 17.2325 20.7607 17.4358 20.4305 17.4358C20.2526 17.4358 20.024 17.2325 20.024 16.6736V11.4654C20.024 10.8049 19.8208 10.5 19.2618 10.5H15.1461C14.7396 10.5 14.4856 10.8049 14.4856 11.1098C14.4856 11.7449 15.4255 11.8973 15.5272 13.6757V17.5374C15.5272 18.3758 15.3748 18.5282 15.0445 18.5282C14.1553 18.5282 11.9958 15.2509 10.7001 11.5163C10.446 10.7794 10.192 10.5 9.53144 10.5H6.88919C6.12704 10.5 6 10.8557 6 11.2368C6 11.9227 6.88919 15.3779 10.1411 19.951C12.3007 23.0759 15.3748 24.7526 18.144 24.7526C19.8208 24.7526 20.024 24.3715 20.024 23.7365V21.3737C20.024 20.6115 20.1764 20.4845 20.71 20.4845C21.091 20.4845 21.777 20.6877 23.3267 22.1867C25.1051 23.965 25.41 24.778 26.4008 24.778H29.0176C29.7798 24.778 30.1355 24.397 29.9323 23.6602C29.7036 22.9234 28.8398 21.8564 27.7219 20.5861C27.1122 19.8748 26.1976 19.0872 25.9181 18.706C25.537 18.198 25.6387 17.9947 25.9181 17.5374C25.8928 17.5374 29.0938 13.0152 29.4241 11.4908Z" fill="white"/>
</svg>
