<svg width="24" height="24" viewBox="0 0 24 24" fill="none" xmlns="http://www.w3.org/2000/svg">
<path d="M12.0001 0C5.3735 0 0 5.50847 0 12.3038C0 17.74 3.43839 22.3519 8.2064 23.9789C8.80613 24.0927 9.02631 23.7119 9.02631 23.387C9.02631 23.0936 9.01518 22.1244 9.01001 21.0963C5.67157 21.8405 4.96712 19.6446 4.96712 19.6446C4.42125 18.2224 3.63473 17.8443 3.63473 17.8443C2.54596 17.0806 3.7168 17.0963 3.7168 17.0963C4.92181 17.1831 5.55632 18.3642 5.55632 18.3642C6.6266 20.2452 8.36359 19.7014 9.04836 19.387C9.15607 18.5918 9.46706 18.049 9.81024 17.7418C7.14486 17.4307 4.34295 16.3757 4.34295 11.6612C4.34295 10.3179 4.81172 9.22032 5.57937 8.35868C5.45477 8.04878 5.04402 6.79737 5.69562 5.10261C5.69562 5.10261 6.70331 4.77193 8.9965 6.3638C9.95372 6.09119 10.9803 5.95447 12.0001 5.94979C13.0199 5.95447 14.0473 6.09119 15.0063 6.3638C17.2967 4.77193 18.303 5.10261 18.303 5.10261C18.9562 6.79737 18.5452 8.04878 18.4206 8.35868C19.1901 9.22032 19.6557 10.3179 19.6557 11.6612C19.6557 16.3869 16.8484 17.4274 14.1762 17.732C14.6067 18.1138 14.9902 18.8626 14.9902 20.0105C14.9902 21.6568 14.9763 22.9817 14.9763 23.387C14.9763 23.7144 15.1923 24.098 15.8006 23.9772C20.566 22.3485 24 17.7381 24 12.3038C24 5.50847 18.6273 0 12.0001 0Z" fill="white"/>
<path d="M4.58044 17.5812C4.55406 17.6417 4.46044 17.6599 4.37515 17.6183C4.28827 17.5786 4.23948 17.4961 4.26765 17.4354C4.29343 17.373 4.38725 17.3557 4.47393 17.3974C4.561 17.4372 4.61059 17.5205 4.58044 17.5812Z" fill="white"/>
<path d="M5.06558 18.1315C5.00846 18.1854 4.89679 18.1603 4.82102 18.0752C4.74268 17.9903 4.728 17.8767 4.78592 17.822C4.84482 17.7682 4.95312 17.7934 5.03167 17.8783C5.11001 17.9643 5.12529 18.077 5.06558 18.1315Z" fill="white"/>
<path d="M5.53785 18.8331C5.46447 18.8849 5.34447 18.8363 5.27028 18.728C5.19689 18.6197 5.19689 18.4897 5.27187 18.4377C5.34625 18.3856 5.46447 18.4324 5.53964 18.54C5.61283 18.6501 5.61283 18.78 5.53785 18.8331Z" fill="white"/>
<path d="M6.18485 19.511C6.1192 19.5846 5.97936 19.5648 5.87702 19.4644C5.77229 19.3661 5.74313 19.2267 5.80898 19.1531C5.87543 19.0792 6.01606 19.1 6.1192 19.1997C6.22313 19.2977 6.25487 19.4381 6.18485 19.511Z" fill="white"/>
<path d="M7.07743 19.9045C7.04847 19.9999 6.91379 20.0433 6.77812 20.0028C6.64265 19.961 6.55399 19.8492 6.58136 19.7528C6.60953 19.6568 6.7448 19.6116 6.88146 19.655C7.01674 19.6965 7.10559 19.8075 7.07743 19.9045Z" fill="white"/>
<path d="M8.05765 19.9776C8.06102 20.0781 7.94598 20.1614 7.80357 20.1632C7.66036 20.1664 7.54452 20.0851 7.54294 19.9863C7.54294 19.8848 7.6554 19.8023 7.79861 19.7999C7.94102 19.7971 8.05765 19.8777 8.05765 19.9776Z" fill="white"/>
<path d="M8.96985 19.8197C8.98691 19.9178 8.88794 20.0184 8.74651 20.0453C8.60747 20.0711 8.47875 20.0106 8.46109 19.9133C8.44384 19.8129 8.5446 19.7122 8.68344 19.6862C8.82506 19.6611 8.9518 19.7201 8.96985 19.8197Z" fill="white"/>
</svg>
